<svg width="40" height="40" viewBox="0 0 40 40" fill="none" xmlns="http://www.w3.org/2000/svg">
<path d="M20 37.5781C29.7081 37.5781 37.5781 29.7081 37.5781 20C37.5781 10.2919 29.7081 2.42188 20 2.42188C10.2919 2.42188 2.42188 10.2919 2.42188 20C2.42188 29.7081 10.2919 37.5781 20 37.5781Z" fill="white"/>
<path d="M23.7344 10.2344H16.2734C12.9453 10.2344 10.2422 12.9375 10.2422 16.2656V23.7266C10.2422 27.0547 12.9453 29.7578 16.2734 29.7578H23.7344C27.0625 29.7578 29.7656 27.0547 29.7656 23.7266V16.2656C29.7656 12.9375 27.0625 10.2344 23.7344 10.2344ZM27.5859 23.7344C27.5859 25.8594 25.8594 27.5938 23.7266 27.5938H16.2656C14.1406 27.5938 12.4062 25.8672 12.4062 23.7344V16.2734C12.4062 14.1484 14.1328 12.4141 16.2656 12.4141H23.7266C25.8516 12.4141 27.5859 14.1406 27.5859 16.2734V23.7344Z" fill="black"/>
<path d="M20 15.0078C17.25 15.0078 15.0078 17.25 15.0078 20C15.0078 22.75 17.25 24.9922 20 24.9922C22.75 24.9922 24.9922 22.75 24.9922 20C24.9922 17.25 22.75 15.0078 20 15.0078ZM20 23.0312C18.3281 23.0312 16.9687 21.6719 16.9687 20C16.9687 18.3281 18.3281 16.9687 20 16.9687C21.6719 16.9687 23.0312 18.3281 23.0312 20C23.0312 21.6719 21.6719 23.0312 20 23.0312Z" fill="black"/>
<path d="M25.3726 15.5551C25.8325 15.4802 26.1446 15.0466 26.0697 14.5867C25.9948 14.1267 25.5613 13.8146 25.1013 13.8895C24.6414 13.9644 24.3293 14.398 24.4042 14.8579C24.4791 15.3179 24.9127 15.63 25.3726 15.5551Z" fill="black"/>
</svg>
