<svg width="36" height="36" viewBox="0 0 36 36" fill="none" xmlns="http://www.w3.org/2000/svg">
<path d="M17.25 31.5C25.1201 31.5 31.5 25.1201 31.5 17.25C31.5 9.37994 25.1201 3 17.25 3C9.37994 3 3 9.37994 3 17.25C3 25.1201 9.37994 31.5 17.25 31.5Z" fill="#ECEAE0"/>
<path d="M31.9498 33C31.6798 33 31.4098 32.895 31.2148 32.7L28.4248 29.91C28.0198 29.505 28.0198 28.845 28.4248 28.425C28.8298 28.02 29.4898 28.02 29.9098 28.425L32.6998 31.215C33.1048 31.62 33.1048 32.28 32.6998 32.7C32.4898 32.895 32.2198 33 31.9498 33Z" fill="#ECEAE0"/>
<path d="M24 26.5C22.3333 27.7676 17.8 29.7324 13 27.4507" stroke="#ED1F04" stroke-width="1.5" stroke-linecap="round"/>
</svg>
